<mxfile host="app.diagrams.net" modified="2024-03-06T03:55:07.677Z" agent="Mozilla/5.0 (Macintosh; Intel Mac OS X 10_15_7) AppleWebKit/605.1.15 (KHTML, like Gecko) Version/17.0 Safari/605.1.15" version="24.0.2" etag="rQX7JU16GekYAlPogwIa" type="github">
  <diagram name="Page-1" id="xk3KQ8AQl8i5XkSfG_TJ">
    <mxGraphModel>
      <root>
        <mxCell id="0" />
        <mxCell id="1" parent="0" />
      </root>
    </mxGraphModel>
  </diagram>
</mxfile>
